<svg width="79" height="78" viewBox="0 0 79 78" fill="none" xmlns="http://www.w3.org/2000/svg">
<path d="M29.6146 29.196C28.2604 28.221 27.2719 27.5033 26.2833 26.7991C22.3021 23.9418 18.2938 21.0981 14.3396 18.2001C13.3917 17.5095 12.4979 16.6564 11.8344 15.7085C11.4552 15.1397 11.3333 14.1241 11.5906 13.5283C11.7396 13.1762 12.9583 12.9866 13.5406 13.1897C14.9625 13.6637 16.3438 14.3137 17.6438 15.0585C21.6927 17.4012 25.7011 19.8251 29.8854 22.3168C30.2646 19.8251 30.5896 17.347 31.05 14.896C31.4021 13.0001 31.8896 11.1043 32.4177 9.24909C32.7563 8.04388 33.474 7.00117 34.9229 7.2043C36.4261 7.40742 36.9136 8.59909 36.8865 9.93972C36.8323 13.9345 36.6969 17.9158 36.6156 21.9106C36.5886 22.8585 36.6156 23.8064 36.6156 24.7543C36.7646 24.8897 38.0375 23.7522 38.6333 23.1699C43.725 18.1866 48.8167 13.2303 53.9625 8.30117C54.6802 7.61055 55.5875 7.02826 56.5083 6.64909C56.9958 6.44597 57.9167 6.59492 58.2417 6.94701C58.5667 7.29909 58.6344 8.21992 58.4042 8.69388C57.9708 9.60117 57.3208 10.4272 56.6302 11.172C52.0938 16.1553 47.5302 21.1116 42.9802 26.0814C42.4792 26.6231 41.9781 27.1918 41.2333 28.0178C44.6458 27.7741 47.7198 27.5033 50.7938 27.3408C56.9823 27.0293 63.1844 26.772 69.3729 26.5012C69.7521 26.4876 70.1583 26.4876 70.4833 26.5553C72.6094 27.0022 72.4198 29.1283 70.8219 29.3991C68.8719 29.7376 66.9083 30.1574 64.9313 30.3605C57.849 31.0647 50.7667 31.6876 43.6844 32.3512C43.5354 32.3647 43.4 32.4189 42.9531 32.5408C44.9031 34.071 46.7042 35.4793 48.5052 36.8741C51.9042 39.5283 55.3438 42.1418 58.6886 44.8501C59.5823 45.5814 60.3677 46.5428 60.9365 47.5449C61.5458 48.6012 60.9094 49.5085 59.7448 49.2241C58.3229 48.8585 56.8604 48.2762 55.6552 47.4501C49.7781 43.4418 43.9823 39.3116 38.1594 35.222C37.5094 34.7616 36.8594 34.3012 35.9115 33.6105C35.7083 36.6845 35.5458 39.447 35.3292 42.2095C34.6792 50.4293 34.0292 58.6491 33.3521 66.8689C33.2708 67.7762 33.0948 68.697 32.824 69.5637C32.4583 70.7553 31.6458 71.5408 30.3323 71.446C29.1 71.3512 28.3823 70.5251 28.1656 69.3606C27.9625 68.2501 27.8542 67.1126 27.8677 65.9887C27.949 58.6491 28.0708 51.3231 28.1792 43.9835C28.1927 43.4418 28.1792 42.9137 28.1792 41.9793C27.5563 42.5751 27.1229 42.9678 26.7031 43.3876C22.0177 48.0731 17.3323 52.772 12.6333 57.4574C12.1052 57.9856 11.5094 58.5137 10.8323 58.8116C10.3719 59.0147 9.55939 59.0012 9.2073 58.7168C8.85522 58.4324 8.77397 57.6335 8.77397 57.1595C8.78751 55.6699 9.58647 55.0064 10.2906 54.1533C14.4344 49.1293 18.6458 44.146 22.8844 39.1897C24.4146 37.4022 26.0802 35.7366 28.0438 33.6512C24.374 34.071 21.1917 34.4772 18.0094 34.7751C14.949 35.0595 11.8886 35.2355 8.81459 35.4522C8.48959 35.4793 8.15105 35.4251 7.85313 35.3845C6.29584 35.1949 7.17605 33.5428 7.62293 33.4345C10.6969 32.6762 13.7979 31.9449 16.9125 31.3762C20.6094 30.7397 28.775 29.4803 29.6146 29.196Z" fill="black"/>
</svg>
