<svg width="74" height="49" viewBox="0 0 74 49" fill="none" xmlns="http://www.w3.org/2000/svg">
<g clip-path="url(#clip0_301_7847)">
<path d="M68.7714 20.5672C66.4177 20.9903 64.4334 21.3985 62.435 21.6925C59.0479 22.2049 55.6799 22.5602 52.282 21.6116C48.8356 20.6459 46.6505 18.433 46.0905 14.9743C45.75 12.8502 45.9868 10.6391 46.0435 8.47348C46.0702 7.62686 46.3359 6.77384 46.5601 5.52364C45.0617 6.66861 43.8988 7.58634 42.6988 8.4545C39.7756 10.5883 36.9369 12.8432 33.8872 14.7683C29.7215 17.4274 26.0036 16.4566 23.477 12.1739C22.4875 10.4938 21.8992 8.55504 21.146 6.72186C20.9228 6.16924 20.7815 5.591 20.5661 4.91363C18.7201 7.81151 17.0065 10.5924 15.1969 13.2846C10.969 19.5645 5.52013 17.3613 2.65942 12.942C1.89409 11.7602 1.40423 10.3664 0.913357 9.0268C0.61533 8.11982 0.828783 7.15722 1.83388 6.83931C2.74086 6.54128 3.34774 7.19337 3.75636 7.99381C4.17071 8.77807 4.5355 9.59942 5.02706 10.3199C5.60325 11.1615 6.19563 12.0088 6.92624 12.723C8.98491 14.7271 10.842 14.7292 12.7396 12.56C14.0823 11.032 15.2061 9.29897 16.3346 7.60408C17.3849 6.02719 18.3658 4.38928 19.3467 2.75136C19.8619 1.91386 20.4094 1.08782 21.5056 1.13C22.7645 1.17522 23.1634 2.20897 23.5366 3.1608C24.019 4.36988 24.3157 5.64066 24.8639 6.8184C25.5365 8.3134 26.2472 9.80369 27.1342 11.1561C28.3436 12.9869 29.5641 13.3464 31.5423 12.3896C33.4328 11.4745 35.3149 10.4291 37.0372 9.21768C40.7133 6.60375 44.283 3.87922 47.8583 1.13852C48.7067 0.49186 49.5118 0.121342 50.4626 0.67668C51.3706 1.19864 51.3972 2.10055 51.2114 3.03651C50.8762 4.70277 50.4648 6.37846 50.2163 8.0572C50.0041 9.53027 49.8129 11.0472 49.8722 12.5253C50.0211 16.4759 51.7676 18.333 55.6487 18.9973C58.5662 19.5025 61.489 19.4267 64.3971 18.9814C66.4936 18.6676 68.5655 18.2175 70.6363 17.8217C71.7318 17.6087 72.8654 17.3909 73.5879 18.5393C74.2571 19.6324 73.7169 20.6432 73.1397 21.6045C72.8878 22.007 72.5769 22.3705 72.2822 22.7397C71.6767 23.4723 71.1082 24.2545 70.4332 24.9261C65.4467 29.9538 65.6775 35.6273 68.407 41.5483C68.9134 42.6383 69.7647 43.5774 70.4903 44.5629C70.8449 45.0528 71.3588 45.4534 71.6477 45.9747C71.8635 46.3425 72.0199 46.9808 71.8301 47.2596C71.6288 47.5708 70.9962 47.711 70.5991 47.7525C69.7342 47.8287 68.7652 47.3762 68.1563 46.8326C66.9547 45.7513 65.777 44.551 64.95 43.1834C63.1058 40.1624 62.2839 36.7749 62.0621 33.2356C61.8741 30.2183 62.9656 27.5996 64.7577 25.2655C65.9479 23.7564 67.2447 22.3579 68.7714 20.5672Z" fill="#81ADC8"/>
</g>
<defs>
<clipPath id="clip0_301_7847">
<rect width="74" height="49" fill="white"/>
</clipPath>
</defs>
</svg>
