<svg width="69" height="22" viewBox="0 0 69 22" fill="none" xmlns="http://www.w3.org/2000/svg">
<path d="M15.6094 7.92625C13.8625 9.51062 12.1698 10.8919 10.5448 12.5981C8.16151 15.0898 5.94067 17.7304 3.65213 20.3033C3.0563 20.9669 2.58234 21.9419 1.44484 21.4273C0.700047 21.0887 0.700047 20.2356 1.41776 18.8273C1.83755 18.0148 2.31151 17.2294 2.86671 16.4981C6.00838 12.3408 9.7188 8.75229 13.998 5.77312C14.7292 5.27208 15.5282 4.81166 16.3678 4.52729C17.9657 3.99916 19.198 4.91999 19.049 6.59916C18.9542 7.6825 18.575 8.76583 18.25 9.82208C17.6271 11.8262 16.9094 13.7898 16.3136 15.8075C16.1511 16.3627 15.948 17.3242 16.2865 17.744C16.8688 18.3669 18.6021 16.5794 19.374 15.7533C21.7438 13.2481 24.0323 10.6617 26.375 8.12937C28.7178 5.58354 31.3042 3.295 34.324 1.5752C35.2042 1.07416 36.1521 0.640828 37.1271 0.383536C38.698 -0.0362555 39.9438 1.00645 39.8355 2.64499C39.7813 3.43041 39.5511 4.24291 39.2125 4.96062C38.3459 6.76166 37.3573 8.495 36.45 10.269C35.5021 12.1242 34.5136 13.9794 34.1615 16.4981C34.825 15.9023 35.2584 15.5637 35.624 15.1575C38.0073 12.5846 40.3365 9.97104 42.7469 7.4252C44.9407 5.10958 47.2834 2.94291 50.1136 1.42625C51.1834 0.857495 52.3886 0.410622 53.5803 0.248122C55.2323 0.0314549 56.3698 1.29083 56.0448 2.92937C55.8011 4.13458 55.2865 5.29916 54.7719 6.40958C53.7834 8.50854 52.7001 10.5533 51.6844 12.6252C51.4542 13.0856 50.7501 14.169 51.3865 14.2773C52.0636 13.5596 52.7407 12.8283 53.4313 12.1242C55.2594 10.2148 57.0469 8.27833 58.9292 6.42312C60.6219 4.74395 62.5042 3.29499 64.9146 2.75333C66.9459 2.29291 68.3813 3.55229 68.0563 5.61062C67.8938 6.59916 67.5688 7.61479 67.1084 8.50854C65.1042 12.4492 63.0323 16.3492 60.974 20.2627C60.7438 20.6825 60.4865 21.1294 60.1209 21.4273C59.7823 21.6981 59.2136 22.0096 58.8886 21.8877C58.5636 21.7658 57.9678 21.3325 58.0355 20.4794C58.1032 19.694 58.3334 19.1117 58.6448 18.4075C60.0803 15.1575 61.5969 11.9481 63.0865 8.72521C63.4928 7.85854 63.9261 7.00541 64.3459 6.13874C64.4948 5.88145 64.4542 5.84083 64.373 5.74604C63.9803 5.54291 62.8969 6.36896 62.4501 6.80229C59.8907 9.26687 57.3719 11.7585 54.8667 14.2637C53.8782 15.2523 52.9709 16.3356 51.9823 17.3242C51.1698 18.1367 50.1678 18.5971 49.0438 18.0554C47.9198 17.5137 47.6084 16.3762 47.798 15.2929C48.0688 13.7085 48.4073 12.0971 49.0573 10.6481C50.0323 8.44083 51.3053 6.35541 52.4428 4.21583C52.6323 3.85021 52.7948 3.45749 53.1063 2.75333C52.4021 3.05124 51.9688 3.17312 51.5761 3.38979C49.0032 4.8252 46.823 6.76166 44.8594 8.91479C42.5032 11.5012 40.2959 14.2231 37.9667 16.8502C37.0459 17.8929 36.098 18.9627 35.0011 19.8023C32.875 21.4544 30.749 20.5742 30.4782 17.9065C30.3563 16.6471 30.5459 15.32 30.8438 14.0877C31.5886 10.9596 33.2813 8.2377 34.8792 5.48875C35.2178 4.90645 35.5563 4.32416 35.773 3.66062C33.1594 4.62208 31.0469 6.27416 29.1375 8.14291C26.1719 11.0408 23.3688 14.1148 20.4709 17.0669C19.7261 17.8252 18.9 18.5565 17.9928 19.1117C16.449 20.046 14.7698 19.3283 14.3907 17.5679C14.1063 16.2815 14.0928 14.8596 14.2959 13.5596C14.5803 11.6502 15.8261 8.14291 15.7719 7.92625C15.7719 7.72312 15.6094 7.92625 15.6094 7.92625Z" fill="#81ADC8"/>
</svg>
