<svg width="24" height="24" viewBox="0 0 24 24" fill="none" xmlns="http://www.w3.org/2000/svg">
<path d="M18.5333 6.86675C18.5333 7.63995 17.9065 8.26675 17.1333 8.26675C16.3601 8.26675 15.7333 7.63995 15.7333 6.86675C15.7333 6.09355 16.3601 5.46675 17.1333 5.46675C17.9065 5.46675 18.5333 6.09355 18.5333 6.86675Z" fill="black"/>
<path fill-rule="evenodd" clip-rule="evenodd" d="M12 16.6667C14.5773 16.6667 16.6667 14.5774 16.6667 12.0001C16.6667 9.42275 14.5773 7.33342 12 7.33342C9.42268 7.33342 7.33334 9.42275 7.33334 12.0001C7.33334 14.5774 9.42268 16.6667 12 16.6667ZM12 14.8001C13.5464 14.8001 14.8 13.5465 14.8 12.0001C14.8 10.4537 13.5464 9.20008 12 9.20008C10.4536 9.20008 9.20001 10.4537 9.20001 12.0001C9.20001 13.5465 10.4536 14.8001 12 14.8001Z" fill="black"/>
<path fill-rule="evenodd" clip-rule="evenodd" d="M2.66667 11.6267C2.66667 8.49045 2.66667 6.92231 3.27704 5.7244C3.81393 4.67069 4.67062 3.814 5.72433 3.27711C6.92223 2.66675 8.49038 2.66675 11.6267 2.66675H12.3733C15.5096 2.66675 17.0778 2.66675 18.2757 3.27711C19.3294 3.814 20.1861 4.67069 20.723 5.7244C21.3333 6.92231 21.3333 8.49045 21.3333 11.6267V12.3734C21.3333 15.5097 21.3333 17.0779 20.723 18.2758C20.1861 19.3295 19.3294 20.1862 18.2757 20.7231C17.0778 21.3334 15.5096 21.3334 12.3733 21.3334H11.6267C8.49038 21.3334 6.92223 21.3334 5.72433 20.7231C4.67062 20.1862 3.81393 19.3295 3.27704 18.2758C2.66667 17.0779 2.66667 15.5097 2.66667 12.3734V11.6267ZM11.6267 4.53341H12.3733C13.9723 4.53341 15.0592 4.53487 15.8994 4.60351C16.7178 4.67037 17.1363 4.79157 17.4282 4.94032C18.1307 5.29825 18.7018 5.86938 19.0598 6.57185C19.2085 6.8638 19.3297 7.28231 19.3966 8.10069C19.4652 8.94085 19.4667 10.0278 19.4667 11.6267V12.3734C19.4667 13.9724 19.4652 15.0593 19.3966 15.8995C19.3297 16.7179 19.2085 17.1364 19.0598 17.4283C18.7018 18.1308 18.1307 18.7019 17.4282 19.0598C17.1363 19.2086 16.7178 19.3298 15.8994 19.3967C15.0592 19.4653 13.9723 19.4667 12.3733 19.4667H11.6267C10.0277 19.4667 8.94078 19.4653 8.10061 19.3967C7.28223 19.3298 6.86372 19.2086 6.57177 19.0598C5.8693 18.7019 5.29817 18.1308 4.94025 17.4283C4.79149 17.1364 4.6703 16.7179 4.60343 15.8995C4.53479 15.0593 4.53334 13.9724 4.53334 12.3734V11.6267C4.53334 10.0278 4.53479 8.94085 4.60343 8.10069C4.6703 7.28231 4.79149 6.8638 4.94025 6.57185C5.29817 5.86938 5.8693 5.29825 6.57177 4.94032C6.86372 4.79157 7.28223 4.67037 8.10061 4.60351C8.94078 4.53487 10.0277 4.53341 11.6267 4.53341Z" fill="black"/>
</svg>
