<svg width="63" height="68" viewBox="0 0 63 68" fill="none" xmlns="http://www.w3.org/2000/svg">
<path d="M62.1584 19.741C62.5782 20.2014 62.6323 20.8785 62.3073 21.4201C62.0094 21.9212 61.7521 22.3545 61.4542 22.7607C58.3667 27.0399 56.674 29.2743 53.6271 33.5805C52.8553 34.6639 50.9865 37.9816 50.2688 39.1191C50.2553 39.1326 50.2553 39.1462 50.2417 39.1597C49.5917 40.1347 47.9938 40.067 47.4792 38.9972C47.4792 38.9972 47.4792 38.9837 47.4657 38.9837C46.7073 37.318 46.098 35.5982 45.3938 33.9055C43.4573 29.2337 40.7626 25.1847 36.2803 22.5305C34.6553 21.5691 34.6282 20.8649 35.8875 19.4701C36.3615 18.9555 36.8355 18.4274 37.35 17.967C42.3198 13.5389 45.7459 8.06804 48.3053 1.97429C48.4678 1.59512 48.7928 1.2972 49.1448 0.999288C49.6053 0.620122 50.2688 0.674289 50.675 1.10762C51.0136 1.45971 51.325 1.83887 51.5146 2.25866C51.9344 3.23366 52.0428 4.33054 52.3 5.37325C53.6813 11.0472 56.7553 15.5701 61.4271 19.0503C61.6844 19.2399 61.9146 19.4837 62.1584 19.741ZM49.7136 6.14512C48.1021 8.82637 46.748 11.5889 44.9063 13.9993C43.024 16.4503 40.6678 18.5357 38.5146 20.7972C43.9855 24.0743 47.1542 29.2607 49.0636 35.6253C51.8667 29.8295 55.7396 25.2253 59.9917 20.9191C53.275 15.8003 51.6771 13.4847 49.7136 6.14512Z" fill="black"/>
<path d="M11.0927 66.4733C9.86045 62.9795 8.79066 59.4181 7.4365 55.9785C6.10941 52.6472 4.13233 49.6816 1.28858 47.3931C0.245871 46.5535 0.272954 45.7951 1.12608 44.8472C5.91983 39.6337 9.60316 33.7295 12.2438 27.1618C12.5282 26.4576 13.2865 25.3337 13.8146 25.3337C15.25 24.9951 15.7646 27.7983 15.8188 28.0556C17.024 34.6639 21.1136 39.4712 25.7042 43.967C27.1938 45.4295 27.3157 45.8764 25.8532 47.2847C20.3417 52.566 16.6855 59.066 13.5438 65.9045C12.5552 68.2879 11.2417 66.8931 11.0927 66.4733ZM2.94066 45.7816C5.86566 47.6368 7.80212 50.1149 9.21046 52.9181C10.5782 55.667 11.5802 58.5785 12.7177 61.3681C15.3448 55.491 18.8927 50.0608 24.2823 45.9306C19.0688 41.8274 14.9521 37.142 13.6927 30.4253C11.4313 36.4649 7.84275 41.4889 2.94066 45.7816Z" fill="#81ADC8"/>
<path d="M48.102 51.9025C45.1093 55.9244 43.2812 60.515 41.602 65.1869C41.4937 65.4848 41.1416 67.1775 39.8551 67.164C39.4895 67.164 38.8801 66.5817 38.6499 66.1213C37.6343 64.0494 36.9978 61.7338 35.7114 59.865C34.1947 57.6442 32.1093 55.8161 30.3489 53.7713C30.0916 53.4734 29.9968 52.7963 30.1593 52.4307C30.4708 51.7536 31.026 51.2119 31.4593 50.589C33.6666 47.339 35.8333 44.0619 38.1083 40.8661C38.5822 40.2025 39.5166 39.4036 40.0718 39.4036C41.453 39.39 41.7239 40.4734 41.9676 41.2452C43.078 44.7932 44.9874 47.7588 47.7635 50.2098C48.752 51.1307 48.2239 51.74 48.102 51.9025ZM32.8947 52.8369C36.1176 55.1254 38.3114 58.4296 39.6385 62.1265C41.602 58.5244 43.6062 54.8546 45.6645 51.0629C42.902 49.1536 40.9791 45.5921 40.0989 42.965C37.6885 46.2692 35.3051 49.5327 32.8947 52.8369Z" fill="#CD4631"/>
</svg>
