<svg width="58" height="58" viewBox="0 0 58 58" fill="none" xmlns="http://www.w3.org/2000/svg">
<g clip-path="url(#clip0_301_7922)">
<path d="M55.3754 35.9371C52.5234 35.2048 47.7185 34.4211 45.9456 33.2135C45.2133 32.7125 45.3032 32.16 45.4317 31.7746C45.5602 31.4149 46.2924 31.0423 46.7421 31.068C47.757 31.1066 48.772 31.325 49.7484 31.5948C51.9195 32.1857 54.0779 32.8024 56.2105 33.509C57.3411 33.8816 57.7008 34.7423 57.0456 35.2948C56.6602 35.6159 56.3004 35.9371 55.3754 35.9371Z" fill="#CD4631"/>
<path d="M10.4103 55.7861C10.5387 55.1052 10.7957 54.7455 11.1682 54.2187C12.62 52.1889 14.136 50.1975 15.6262 48.2062C15.7162 48.0906 15.8189 47.9621 15.9346 47.8722C16.4485 47.4354 17.0266 46.9215 17.6946 47.3968C18.3627 47.885 18.1314 48.6045 17.7717 49.1826C16.2814 51.6107 14.7655 54.026 13.2238 56.4284C12.9926 56.801 12.5943 57.1222 12.196 57.3149C11.2068 57.7902 10.3332 57.135 10.4103 55.7861Z" fill="#CD4631"/>
<path d="M42.5154 55.337C42.5154 55.9152 42.0657 56.3263 41.7317 56.3905C41.2821 56.4804 40.8966 56.4034 40.2543 55.9666C40.0359 55.8252 39.9074 55.4784 39.7789 55.2086C38.8411 53.1787 37.8904 51.1617 36.9782 49.119C36.747 48.6179 36.5157 48.0398 36.5543 47.5131C36.5928 47.0377 36.8883 46.3568 37.2737 46.1898C37.6463 46.0228 38.1473 45.9714 38.7383 46.5495C38.9567 46.7551 39.1623 47.102 39.3036 47.4231C40.2286 49.5686 41.1536 51.7141 42.0529 53.8725C42.2199 54.2836 42.3227 54.7332 42.5154 55.337Z" fill="#CD4631"/>
<path d="M1.73827 37.6334C1.1473 37.4664 0.761884 37.1837 0.671954 36.7983C0.556329 36.3101 0.800426 35.6549 1.08306 35.1924C1.30147 34.8455 1.80251 34.6271 2.22647 34.4858C4.34626 33.7792 6.4789 33.0855 8.62438 32.4303C8.9841 32.3146 9.44661 32.2761 9.79348 32.3917C10.3588 32.5844 10.6029 33.0341 10.1404 33.5737C9.88341 33.882 9.58792 34.2032 9.24105 34.3702C7.23688 35.3723 5.21987 36.3358 3.19001 37.2865C2.81744 37.4535 2.3164 37.8132 1.73827 37.6334Z" fill="#CD4631"/>
<path d="M45.2646 15.5875C44.9819 15.4719 44.7378 15.0094 44.725 14.7011C44.7122 14.2771 44.8406 13.7632 45.0976 13.4164C46.2924 11.7719 47.5514 10.1532 48.7976 8.54726C48.9774 8.30317 49.2215 8.11046 49.4656 7.91775C50.0181 7.49379 50.7375 7.12122 51.2257 7.76358C51.5083 8.13615 51.5983 9.08685 51.3285 9.40803C49.684 11.4122 47.9111 13.3264 46.151 15.2407C46.0097 15.4077 45.7271 15.6775 45.2646 15.5875Z" fill="#CD4631"/>
<path d="M4.07634 12.7996C4.79578 13.018 5.34821 13.1464 5.87495 13.3391C7.40377 13.8916 8.93259 14.4569 10.4486 15.035C10.8725 15.202 11.3222 15.369 11.669 15.6388C11.9131 15.8315 12.1829 16.3197 12.093 16.4996C11.9388 16.795 11.7076 17.1676 11.1809 17.1291C10.9624 17.1162 10.6798 17.1034 10.4357 17.0391C8.71419 16.5766 6.99266 16.1398 5.28398 15.6259C4.70585 15.4589 4.10203 15.2148 3.63953 14.8423C3.30551 14.5725 2.99717 13.9687 3.0871 13.6089C3.16419 13.2749 3.44682 12.7996 4.07634 12.7996Z" fill="#CD4631"/>
<path d="M27.5868 7.48078C27.574 7.63495 27.5611 7.78911 27.5097 7.93043C27.2913 8.55994 27.15 9.26654 26.2635 9.20231C25.3257 9.13807 25.2872 8.36724 25.3 7.73772C25.3385 6.22175 25.4799 4.70578 25.5955 3.17696C25.6469 2.62453 25.7111 2.05925 25.8653 1.53252C26.0195 0.992933 26.2379 0.440502 26.983 0.530432C27.6767 0.620363 27.908 1.08286 27.9208 1.69953C27.9208 2.36759 27.7153 6.22175 27.5868 7.48078Z" fill="#CD4631"/>
</g>
<defs>
<clipPath id="clip0_301_7922">
<rect width="58" height="58" fill="white"/>
</clipPath>
</defs>
</svg>
