<svg width="32" height="24" viewBox="0 0 32 24" fill="none" xmlns="http://www.w3.org/2000/svg">
<g clip-path="url(#clip0_301_7780)">
<path d="M24.358 21.4499C23.7036 20.9197 23.2093 20.4608 22.6437 20.0769C16.9462 16.1836 10.6038 13.6699 4.04088 11.6842C3.27118 11.4538 2.42672 11.3223 1.65064 11.3948C1.23196 11.4329 0.681108 11.8898 0.487656 12.3122C0.345125 12.6324 0.567338 13.296 0.846856 13.5543C1.37182 14.054 2.01585 14.4854 2.69033 14.7875C7.13579 16.7898 11.5846 18.7682 16.0504 20.7126C17.723 21.4354 19.4261 22.1139 21.1156 22.8026C21.6776 23.0401 22.2567 23.2435 22.8288 23.4095C23.4691 23.6095 24.1396 23.5098 24.4008 22.866C24.5705 22.4402 24.8082 22.0484 24.358 21.4499Z" fill="#CD4631"/>
<path d="M24.0385 2.94458C24.203 3.6737 24.3438 4.52724 24.5748 5.34488C25.4963 8.56944 26.4178 11.794 27.3691 15.0015C27.5779 15.6973 27.9084 16.3709 28.2815 16.9805C28.7741 17.7986 29.4193 18.0543 30.1016 17.8771C30.7838 17.6999 31.1819 17.1235 31.1424 16.1565C31.1203 15.4962 31.0649 14.7917 30.8758 14.1717C29.5989 10.1057 28.2912 6.04158 26.9691 1.99361C26.8203 1.54052 26.5787 1.07733 26.2519 0.742032C25.45 -0.104739 24.2849 0.238325 24.058 1.38966C23.9759 1.84046 24.0506 2.3439 24.0385 2.94458Z" fill="#CD4631"/>
</g>
<defs>
<clipPath id="clip0_301_7780">
<rect width="32" height="24" fill="white" transform="matrix(1 0 0 -1 0 24)"/>
</clipPath>
</defs>
</svg>
