<svg width="79" height="78" viewBox="0 0 79 78" fill="none" xmlns="http://www.w3.org/2000/svg">
<path d="M14.0415 44.674C13.5811 44.1052 12.403 45.6625 11.5498 44.9177C10.6967 44.1865 11.8748 43.1708 12.3623 42.5344C13.2019 41.424 14.2175 40.4219 15.3009 39.5688C15.7207 39.2302 16.6957 38.7292 17.1832 39.3521C17.4946 39.7448 17.5759 40.0969 17.0748 41.0448C16.804 41.5458 16.6686 41.8167 15.9509 42.6833C15.9509 42.9542 16.3571 43.2521 16.6686 43.5229C23.1821 49.1969 30.5353 53.0427 39.3238 53.4625C48.1123 53.8958 55.6686 51.174 61.4103 44.2406C61.9248 43.6313 62.629 43.0625 62.7238 42.3583C62.7915 41.8302 62.5613 41.5594 61.8436 40.5573C61.6134 40.2458 61.505 39.4875 61.9248 39.0136C62.6155 38.2011 63.3603 38.6209 63.6175 38.8646C65.3644 40.5708 66.7186 42.575 67.7071 44.3761C67.8967 44.9719 67.5853 45.4594 67.2738 45.7573C67.0165 46.0011 66.3394 45.974 65.9332 45.825C65.4592 45.649 65.0665 45.2292 64.4436 44.7688C58.1603 53.0021 49.6696 56.9292 39.378 56.55C29.2488 56.2115 20.379 51.8917 14.0415 44.674Z" fill="black"/>
<path d="M50.8478 29.7916C50.8071 26.2301 53.3259 23.3593 56.4676 23.3729C59.203 23.3864 61.6405 26.176 61.6676 29.3312C61.6811 32.3239 59.0269 35.0999 56.0884 35.1406C53.1228 35.1676 50.8749 32.8791 50.8478 29.7916ZM53.4613 29.4124C53.4884 31.1187 54.653 32.351 56.2374 32.3239C57.6186 32.2968 58.9457 30.9426 58.878 29.5885C58.8103 27.9229 57.9301 26.2031 55.7905 26.4468C54.5717 26.5822 53.4342 27.4353 53.4613 29.4124Z" fill="#CD4631"/>
<path d="M26.7301 27.0562C26.7031 30.2249 24.1166 32.9062 21.0562 32.9197C18.1447 32.9333 15.8291 30.3604 15.9645 27.0426C16.1135 22.9666 18.3749 21.7072 21.6926 21.4093C24.2926 21.1791 26.7437 24.1312 26.7301 27.0562ZM18.5103 26.7718C18.4968 28.776 19.5801 30.2791 21.0291 30.2926C22.6406 30.3062 24.1437 28.7354 24.1437 27.0156C24.1437 25.4312 22.7083 23.9145 21.2458 23.9551C19.3906 24.0093 18.5103 24.9166 18.5103 26.7718Z" fill="#81ADC8"/>
</svg>
