<svg width="67" height="66" viewBox="0 0 67 66" fill="none" xmlns="http://www.w3.org/2000/svg">
<path d="M5.72611 20.9479C9.36882 16.6688 13.3636 12.5792 17.7782 9.09899C20.8522 6.67503 21.9084 6.55315 23.6011 6.09274C24.0615 5.97086 24.4678 5.68649 24.8605 5.40211C41.3407 -6.23018 62.3438 2.0167 66.4063 22.5459C69.1011 36.1688 62.1542 49.6969 50.2105 55.2219C50.0209 55.3167 49.7365 55.3438 49.6417 55.4927C47.2719 59.2032 42.4511 60.6386 39.5126 61.3698C38.9167 61.5865 38.4563 62.2094 37.9147 62.6157C37.4949 62.9271 37.0751 63.2657 36.6011 63.4823C21.0688 70.6865 4.37194 61.0448 0.715694 45.0927C0.20111 42.8448 -2.06035 29.2761 5.72611 20.9479ZM38.0772 54.3552C43.6157 54.3282 47.2313 53.4209 50.4678 51.6469C66.0407 43.1021 68.3699 19.8917 54.6657 8.55732C46.8115 2.07086 36.7636 0.973987 27.9344 7.18961C17.4397 14.5698 13.6344 29.6959 19.5115 41.125C23.7365 49.3448 30.4397 53.8813 38.0772 54.3552ZM43.3719 57.8625C44.049 57.6188 44.1438 57.4427 44.0355 57.3615C44.0355 57.3615 43.7511 57.3615 43.2772 57.375C31.0897 58.2959 21.9219 53.448 16.4917 42.5198C11.1834 31.849 12.4699 21.3677 18.7397 11.3334C18.2386 11.5771 17.8324 11.875 17.4667 12.2136C9.01673 19.8646 6.52507 32.824 11.4001 43.9011C15.8959 54.125 25.3344 60.1917 35.9511 59.4334C38.4428 59.2573 40.8938 58.4042 43.3719 57.8625ZM7.58132 22.7354C7.59486 22.3427 7.22924 22.8302 7.17507 22.8979C6.98549 23.1552 6.7959 23.4261 6.6334 23.6969C4.39903 27.4615 3.00424 31.5375 2.81465 35.9115C2.36778 45.8782 5.86153 54.1386 14.298 59.7719C19.9042 63.5229 26.1334 64.2948 32.6469 62.2636C23.1272 61.3021 15.7063 56.8875 10.6959 48.7354C5.68549 40.6104 4.88653 31.8896 7.58132 22.7354Z" fill="black"/>
<path d="M48.3688 31.4157C50.2376 31.4834 50.8469 32.4584 50.2376 34.2188C48.7209 38.5521 44.4553 40.6646 40.1084 39.1479C37.5355 38.2406 35.5178 36.5886 34.123 34.2323C33.0532 32.4177 33.5272 31.375 35.6261 31.2396C37.8199 31.0907 46.324 31.3344 48.3688 31.4157ZM47.949 33.5282C44.2115 33.5282 40.5688 33.5282 36.8855 33.5282C40.623 37.875 46.148 37.9563 47.949 33.5282Z" fill="black"/>
<path d="M33.1343 23.7378C33.1478 25.8503 31.1166 27.7732 28.8958 27.7597C26.9593 27.7461 25.6051 25.9993 25.5916 24.1441C25.5645 22.2888 27.4603 20.4607 29.5458 20.4066C31.5499 20.3388 33.1343 21.8013 33.1343 23.7378ZM29.0718 22.3972C28.0697 22.5597 27.7583 23.5076 27.8395 24.2253C27.9478 25.268 28.7333 25.5253 29.2208 25.5388C29.6812 25.5524 30.5885 25.092 30.7781 24.1982C31.0218 23.2909 30.5072 22.0586 29.0718 22.3972Z" fill="#CD4631"/>
<path d="M59.0124 24.3063C58.9853 26.3511 57.5364 27.8542 55.5999 27.8407C53.5145 27.8272 52.0114 26.1345 52.0791 23.873C52.1333 21.9095 53.5958 20.3928 55.4103 20.4334C57.2926 20.4876 59.0395 22.3563 59.0124 24.3063ZM57.1437 24.2522C57.1437 23.2095 56.5885 22.5053 55.7218 22.5053C55.1937 22.5053 54.2999 22.9115 54.2999 24.022C54.2999 25.9584 55.7218 25.8501 55.7218 25.8501C56.4801 25.823 57.1437 25.5115 57.1437 24.2522Z" fill="#81ADC8"/>
</svg>
