<svg width="70" height="70" viewBox="0 0 70 70" fill="none" xmlns="http://www.w3.org/2000/svg">
<path d="M62.5137 22.2034C62.8905 22.6166 62.9391 23.2242 62.6474 23.7103C62.38 24.16 62.1491 24.5489 61.8818 24.9134C59.1109 28.7537 57.5918 30.7589 54.8575 34.6235C54.1648 35.5957 52.4877 38.5732 51.8436 39.594C51.8314 39.6062 51.8314 39.6183 51.8193 39.6305C51.2359 40.5055 49.8019 40.4447 49.3401 39.4846C49.3401 39.4846 49.3401 39.4725 49.328 39.4725C48.6474 37.9777 48.1005 36.4343 47.4686 34.9152C45.7307 30.7225 43.3123 27.0888 39.2898 24.7068C37.8314 23.844 37.8071 23.2121 38.9373 21.9603C39.3627 21.4985 39.788 21.0246 40.2498 20.6114C44.7099 16.6374 47.7846 11.7277 50.0814 6.25893C50.2273 5.91865 50.5189 5.65129 50.8349 5.38393C51.2481 5.04365 51.8436 5.09226 52.2082 5.48115C52.512 5.79712 52.7915 6.1374 52.9616 6.51414C53.3384 7.38914 53.4356 8.37351 53.6665 9.30927C54.9061 14.4013 57.6648 18.4603 61.8575 21.5836C62.0884 21.7537 62.295 21.9725 62.5137 22.2034ZM51.3453 10.002C49.8991 12.4082 48.6839 14.8874 47.0311 17.0506C45.3418 19.2502 43.2273 21.1218 41.295 23.1513C46.2047 26.0923 49.0484 30.7468 50.762 36.4586C53.2776 31.2572 56.7533 27.1252 60.5693 23.2607C54.5415 18.6669 53.1075 16.5888 51.3453 10.002Z" fill="black"/>
<path d="M16.6852 64.1427C15.5793 61.0073 14.6192 57.8111 13.4039 54.7243C12.2129 51.7347 10.4386 49.0733 7.88656 47.0194C6.95079 46.266 6.9751 45.5854 7.74072 44.7347C12.0428 40.0559 15.3484 34.7573 17.7182 28.8632C17.9734 28.2312 18.6539 27.2226 19.1279 27.2226C20.4161 26.9187 20.8779 29.4344 20.9265 29.6653C22.0081 35.5958 25.6782 39.9101 29.798 43.9448C31.1348 45.2573 31.2442 45.6583 29.9317 46.9222C24.9855 51.6618 21.7043 57.4951 18.8848 63.6323C17.9977 65.7712 16.8188 64.5194 16.6852 64.1427ZM9.3692 45.5733C11.9942 47.2382 13.732 49.4621 14.9959 51.9778C16.2234 54.4448 17.1227 57.0576 18.1435 59.5611C20.5011 54.2868 23.6852 49.4135 28.522 45.7069C23.8432 42.0246 20.1487 37.8198 19.0185 31.792C16.989 37.2121 13.7685 41.7208 9.3692 45.5733Z" fill="#81ADC8"/>
<path d="M49.8991 51.0665C47.2133 54.6759 45.5727 58.7957 44.0657 62.9884C43.9685 63.2557 43.6525 64.7748 42.498 64.7627C42.1699 64.7627 41.623 64.2401 41.4164 63.8269C40.505 61.9675 39.9338 59.8894 38.7793 58.2123C37.4182 56.2193 35.5466 54.5786 33.9668 52.7436C33.7359 52.4762 33.6508 51.8686 33.7966 51.5404C34.0761 50.9328 34.5744 50.4467 34.9633 49.8877C36.9442 46.971 38.8886 44.03 40.9303 41.162C41.3557 40.5665 42.1942 39.8495 42.6925 39.8495C43.9321 39.8373 44.1751 40.8095 44.3939 41.5023C45.3904 44.6863 47.1039 47.3477 49.5952 49.5474C50.4824 50.3738 50.0084 50.9207 49.8991 51.0665ZM36.2515 51.905C39.1439 53.9589 41.1126 56.9241 42.3036 60.2418C44.0657 57.0092 45.8643 53.7158 47.7116 50.313C45.2324 48.5995 43.5067 45.4033 42.7168 43.0457C40.5536 46.0109 38.4147 48.9398 36.2515 51.905Z" fill="#CD4631"/>
</svg>
