<svg width="63" height="73" viewBox="0 0 63 73" fill="none" xmlns="http://www.w3.org/2000/svg">
<g clip-path="url(#clip0_301_7780)">
<path d="M44.8884 42.6462C45.1498 41.6491 45.4124 40.8665 45.5554 40.0421C47.0254 31.725 46.6315 23.3842 45.5377 15.0636C45.4066 14.089 45.1277 13.0808 44.6555 12.2519C44.402 11.8041 43.6147 11.4201 43.046 11.4173C42.617 11.4197 41.989 12.0021 41.8418 12.444C41.5492 13.2814 41.3926 14.2172 41.3958 15.1217C41.4037 21.0891 41.4399 27.0483 41.5226 33.0091C41.5597 35.2389 41.6616 37.4804 41.7452 39.7119C41.7636 40.4585 41.8286 41.2068 41.9319 41.9286C42.0317 42.7435 42.4809 43.4411 43.3306 43.4079C43.891 43.3824 44.4478 43.4501 44.8884 42.6462Z" fill="#CD4631"/>
<path d="M13.0949 45.247C14.052 45.5815 15.1351 46.0326 16.2418 46.3541C20.6138 47.6099 24.9858 48.8658 29.3595 50.0751C30.3101 50.3347 31.3224 50.4382 32.2918 50.4468C33.5869 50.4677 34.3446 49.9089 34.6307 48.9966C34.9169 48.0844 34.5396 47.2124 33.3986 46.5633C32.6231 46.1145 31.7727 45.6721 30.9235 45.4443C25.3282 43.9931 19.7128 42.5785 14.1057 41.1921C13.4775 41.0379 12.771 40.9832 12.1505 41.1183C10.6003 41.4328 10.1581 43.0197 11.3198 44.1078C11.7795 44.5261 12.4125 44.8017 13.0949 45.247Z" fill="#CD4631"/>
</g>
<defs>
<clipPath id="clip0_301_7780">
<rect width="37" height="62" fill="white" transform="matrix(-0.876927 -0.480624 -0.480624 0.876927 62.2451 17.7831)"/>
</clipPath>
</defs>
</svg>
