<svg width="24" height="24" viewBox="0 0 24 24" fill="none" xmlns="http://www.w3.org/2000/svg">
<path d="M6.33812 14.8446C6.45533 13.8742 6.85333 13.3308 7.60335 12.7739C8.67649 12.0195 10.017 12.4462 10.017 12.4462V9.91486C10.3429 9.90653 10.6689 9.92585 10.9913 9.97259V13.2302C10.9913 13.2302 9.65116 12.8035 8.57801 13.5582C7.8284 14.1148 7.42958 14.6586 7.31278 15.629C7.30912 16.1559 7.40801 16.8447 7.8634 17.4403C7.75081 17.3826 7.63604 17.3168 7.51911 17.243C6.51596 16.5694 6.33324 15.5588 6.33812 14.8446ZM16.5263 5.23436C15.7881 4.42541 15.5089 3.60866 15.408 3.03491H16.3366C16.3366 3.03491 16.1515 4.5393 17.5009 6.01873L17.5197 6.03863C17.156 5.80985 16.8224 5.5398 16.5263 5.23436ZM20.9999 7.52781V10.7199C20.9999 10.7199 19.8149 10.6735 18.9379 10.4504C17.7134 10.1384 16.9263 9.65977 16.9263 9.65977C16.9263 9.65977 16.3826 9.31849 16.3387 9.2947V15.8864C16.3387 16.2534 16.2382 17.17 15.9317 17.9345C15.5317 18.9346 14.9143 19.591 14.8008 19.7252C14.8008 19.7252 14.0499 20.6125 12.7253 21.2101C11.5313 21.7491 10.483 21.7355 10.1696 21.7491C10.1696 21.7491 8.35744 21.8209 6.72677 20.7612C6.37415 20.5276 6.04499 20.263 5.74356 19.9709L5.7517 19.9768C7.38278 21.0365 9.19455 20.9648 9.19455 20.9648C9.50831 20.9511 10.5566 20.9648 11.7502 20.4257C13.0737 19.8282 13.8257 18.9408 13.8257 18.9408C13.938 18.8066 14.5582 18.1502 14.9566 17.1498C15.2623 16.3857 15.3636 15.4687 15.3636 15.1016V8.51071C15.4076 8.53489 15.9508 8.87618 15.9508 8.87618C15.9508 8.87618 16.7383 9.35515 17.9628 9.6668C18.8402 9.8899 20.0249 9.93631 20.0249 9.93631V7.43498C20.4302 7.52586 20.7757 7.55043 20.9999 7.52781Z" fill="black"/>
<path d="M20.0253 7.43497V9.93553C20.0253 9.93553 18.8407 9.88912 17.9633 9.66601C16.7387 9.35398 15.9513 8.8754 15.9513 8.8754C15.9513 8.8754 15.408 8.53411 15.364 8.50993V15.1024C15.364 15.4694 15.2635 16.3864 14.9571 17.1505C14.557 18.151 13.9397 18.8074 13.8261 18.9416C13.8261 18.9416 13.0749 19.8289 11.7507 20.4265C10.5571 20.9655 9.50874 20.9519 9.19498 20.9655C9.19498 20.9655 7.38321 21.0373 5.75213 19.9776L5.74399 19.9717C5.57178 19.805 5.40968 19.6289 5.25849 19.4444C4.73799 18.8098 4.41894 18.0593 4.33877 17.8452C4.33863 17.8443 4.33863 17.8434 4.33877 17.8425C4.20976 17.4704 3.93873 16.5768 3.97576 15.7113C4.04128 14.1843 4.57847 13.247 4.72049 13.0122C5.09664 12.3719 5.58587 11.799 6.16641 11.319C6.6787 10.9048 7.25936 10.5753 7.88458 10.3439C8.56046 10.0722 9.28422 9.92661 10.017 9.91486V12.4462C10.017 12.4462 8.67652 12.0211 7.60378 12.7739C6.85376 13.3308 6.45576 13.8742 6.33855 14.8446C6.33367 15.5588 6.51639 16.5694 7.51873 17.2434C7.63566 17.3175 7.75042 17.3833 7.86301 17.4407C8.03812 17.6683 8.25125 17.8667 8.49379 18.0277C9.47293 18.6475 10.2934 18.6908 11.3425 18.2883C12.042 18.0192 12.5686 17.4126 12.8128 16.7406C12.9662 16.3209 12.9642 15.8985 12.9642 15.4616V3.03491H15.4059C15.5069 3.60866 15.786 4.42541 16.5243 5.23436C16.8204 5.5398 17.1539 5.80985 17.5176 6.03862C17.6251 6.14979 18.1745 6.69936 18.8797 7.03674C19.2444 7.21114 19.6288 7.34476 20.0253 7.43497Z" fill="black"/>
<path d="M3.36691 17.0676V17.0696L3.4275 17.2338C3.42054 17.2147 3.39803 17.1566 3.36691 17.0676Z" fill="black"/>
<path d="M7.88461 10.3437C7.25939 10.5751 6.67873 10.9047 6.16644 11.3188C5.58572 11.7999 5.09661 12.374 4.72093 13.0155C4.57891 13.2495 4.04172 14.1876 3.9762 15.7146C3.93917 16.5801 4.2102 17.4737 4.33921 17.8458C4.33907 17.8467 4.33907 17.8476 4.33921 17.8485C4.4206 18.0607 4.73843 18.8112 5.25893 19.4477C5.41012 19.6322 5.57222 19.8083 5.74443 19.975C5.19268 19.6093 4.7006 19.1671 4.28427 18.6629C3.76825 18.0338 3.45001 17.2912 3.36699 17.072C3.36689 17.0704 3.36689 17.0688 3.36699 17.0673V17.0645C3.23758 16.6928 2.96573 15.7989 3.00358 14.9322C3.0691 13.4052 3.60628 12.4679 3.74831 12.2331C4.12388 11.5915 4.613 11.0174 5.19382 10.5364C5.706 10.1221 6.28669 9.79254 6.91199 9.56131C7.30202 9.40621 7.70833 9.29179 8.1239 9.22002C8.75019 9.11524 9.38984 9.10616 10.0191 9.19311V9.91469C9.2856 9.92619 8.56113 10.0718 7.88461 10.3437Z" fill="black"/>
<path d="M15.408 3.03476H12.9662V15.4619C12.9662 15.8987 12.9662 16.32 12.8148 16.7408C12.5682 17.4125 12.0437 18.019 11.3445 18.2881C10.295 18.6922 9.47454 18.6474 8.49581 18.0276C8.25285 17.8673 8.03917 17.6696 7.8634 17.4425C8.69726 17.8688 9.44361 17.8614 10.3682 17.5057C11.067 17.2366 11.5923 16.6301 11.8381 15.958C11.992 15.5383 11.9899 15.1159 11.9899 14.6795V2.25H15.3616C15.3616 2.25 15.3237 2.55891 15.408 3.03476ZM20.0253 6.74328V7.43483C19.6295 7.34447 19.2458 7.21085 18.8817 7.0366C18.1765 6.69921 17.6271 6.14964 17.5197 6.03848C17.6443 6.11693 17.7737 6.1883 17.9071 6.25222C18.7645 6.66255 19.609 6.78502 20.0253 6.74328Z" fill="black"/>
</svg>
